<?xml version="1.0" encoding="UTF-8"?>
<svg xmlns="http://www.w3.org/2000/svg" xmlns:xlink="http://www.w3.org/1999/xlink" width="64pt" height="64pt" viewBox="0 0 64 64" version="1.1">
<g id="surface1">
<path style=" stroke:none;fill-rule:nonzero;fill:rgb(23.921569%,28.627451%,32.156863%);fill-opacity:1;" d="M 14.753906 33.441406 L 8.734375 33.441406 C 8.941406 34.582031 9.746094 35.277344 10.71875 35.277344 C 11.335938 35.277344 12.113281 35.199219 12.683594 34.226562 L 14.546875 34.621094 C 13.851562 36.269531 12.4375 37.066406 10.710938 37.066406 C 8.472656 37.066406 6.65625 35.367188 6.65625 32.882812 C 6.65625 30.398438 8.480469 28.683594 10.738281 28.683594 C 12.847656 28.683594 14.664062 30.3125 14.742188 32.726562 L 14.742188 33.441406 Z M 8.796875 31.96875 L 12.613281 31.96875 C 12.347656 30.960938 11.582031 30.507812 10.75 30.507812 C 9.953125 30.519531 9.050781 30.988281 8.796875 31.96875 "/>
<path style=" stroke:none;fill-rule:nonzero;fill:rgb(23.921569%,28.627451%,32.156863%);fill-opacity:1;" d="M 37.066406 36.839844 L 34.972656 36.839844 L 34.972656 36.160156 C 34.335938 36.75 33.472656 37.085938 32.363281 37.085938 C 30.351562 37.085938 28.484375 35.386719 28.484375 32.902344 C 28.484375 30.417969 30.351562 28.703125 32.363281 28.703125 C 33.472656 28.703125 34.347656 29.035156 34.972656 29.625 L 34.972656 25.894531 L 37.066406 25.894531 Z M 34.972656 32.894531 C 34.972656 31.429688 33.84375 30.519531 32.726562 30.519531 C 31.460938 30.519531 30.507812 31.441406 30.507812 32.894531 C 30.507812 34.355469 31.460938 35.25 32.726562 35.25 C 33.855469 35.25 34.972656 34.347656 34.972656 32.894531 "/>
<path style=" stroke:none;fill-rule:nonzero;fill:rgb(23.921569%,28.627451%,32.156863%);fill-opacity:1;" d="M 54.175781 28.945312 L 51.289062 28.945312 L 51.289062 30.695312 L 54.175781 30.695312 C 54.980469 30.695312 55.519531 31.039062 55.519531 31.832031 L 55.519531 31.960938 L 53.242188 31.960938 C 51.25 31.960938 50.101562 32.972656 50.101562 34.492188 C 50.101562 36.042969 51.308594 37.074219 53.113281 37.074219 C 54.195312 37.074219 54.980469 36.710938 55.519531 36.191406 L 55.519531 36.839844 L 57.519531 36.839844 L 57.519531 31.675781 C 57.519531 29.792969 56.195312 28.988281 54.175781 28.945312 M 55.519531 33.640625 C 55.519531 34.648438 54.558594 35.414062 53.449219 35.414062 C 52.644531 35.414062 52.101562 35.03125 52.101562 34.453125 C 52.101562 33.914062 52.542969 33.550781 53.210938 33.550781 L 55.527344 33.550781 L 55.527344 33.640625 Z M 55.519531 33.640625 "/>
<path style=" stroke:none;fill-rule:nonzero;fill:rgb(23.921569%,28.627451%,32.156863%);fill-opacity:1;" d="M 41.816406 28.945312 L 38.929688 28.945312 L 38.929688 30.695312 L 41.816406 30.695312 C 42.621094 30.695312 43.160156 31.039062 43.160156 31.832031 L 43.160156 31.960938 L 40.882812 31.960938 C 38.890625 31.960938 37.742188 32.972656 37.742188 34.492188 C 37.742188 36.042969 38.949219 37.074219 40.753906 37.074219 C 41.835938 37.074219 42.621094 36.710938 43.160156 36.191406 L 43.160156 36.839844 L 45.152344 36.839844 L 45.152344 31.675781 C 45.152344 29.792969 43.828125 28.988281 41.816406 28.945312 M 43.160156 33.640625 C 43.160156 34.648438 42.199219 35.414062 41.089844 35.414062 C 40.285156 35.414062 39.746094 35.03125 39.746094 34.453125 C 39.746094 33.914062 40.1875 33.550781 40.855469 33.550781 L 43.171875 33.550781 L 43.171875 33.640625 Z M 43.160156 33.640625 "/>
<path style=" stroke:none;fill-rule:nonzero;fill:rgb(23.921569%,28.627451%,32.156863%);fill-opacity:1;" d="M 24.433594 28.945312 L 21.546875 28.945312 L 21.546875 30.695312 L 24.433594 30.695312 C 25.238281 30.695312 25.777344 31.039062 25.777344 31.832031 L 25.777344 31.960938 L 23.5 31.960938 C 21.507812 31.960938 20.359375 32.972656 20.359375 34.492188 C 20.359375 36.042969 21.566406 37.074219 23.371094 37.074219 C 24.453125 37.074219 25.238281 36.710938 25.777344 36.191406 L 25.777344 36.839844 L 27.777344 36.839844 L 27.777344 31.675781 C 27.777344 29.792969 26.453125 28.988281 24.433594 28.945312 M 25.777344 33.640625 C 25.777344 34.648438 24.816406 35.414062 23.707031 35.414062 C 22.902344 35.414062 22.359375 35.03125 22.359375 34.453125 C 22.359375 33.914062 22.800781 33.550781 23.46875 33.550781 L 25.785156 33.550781 L 25.785156 33.640625 Z M 25.777344 33.640625 "/>
<path style=" stroke:none;fill-rule:nonzero;fill:rgb(23.921569%,28.627451%,32.156863%);fill-opacity:1;" d="M 20.425781 28.9375 C 19.140625 28.9375 18.226562 29.449219 17.589844 30.371094 L 17.589844 28.925781 L 15.5 28.925781 L 15.5 36.828125 L 17.589844 36.828125 L 17.589844 34.277344 C 17.589844 32.078125 18.472656 30.695312 20.40625 30.695312 L 20.503906 30.695312 L 20.503906 28.9375 C 20.476562 28.9375 20.457031 28.9375 20.425781 28.9375 "/>
<path style=" stroke:none;fill-rule:nonzero;fill:rgb(23.921569%,28.627451%,32.156863%);fill-opacity:1;" d="M 6.261719 34.925781 C 5.949219 35.042969 5.613281 35.121094 5.359375 35.121094 C 4.664062 35.121094 4.203125 34.710938 4.203125 33.757812 L 4.203125 30.636719 L 6.339844 30.636719 L 6.339844 28.925781 L 4.203125 28.925781 L 4.203125 26.992188 L 2.109375 26.992188 L 2.109375 33.925781 C 2.109375 36.09375 3.347656 37.074219 5.210938 37.074219 C 5.871094 37.074219 6.507812 36.9375 7.3125 36.496094 C 6.890625 36.0625 6.488281 35.535156 6.261719 34.925781 "/>
<path style=" stroke:none;fill-rule:nonzero;fill:rgb(23.921569%,28.627451%,32.156863%);fill-opacity:1;" d="M 49.441406 35.101562 C 49.355469 35.113281 49.277344 35.121094 49.207031 35.121094 C 48.511719 35.121094 48.050781 34.710938 48.050781 33.757812 L 48.050781 30.636719 L 50.246094 30.636719 L 50.246094 28.925781 L 48.050781 28.925781 L 48.050781 26.992188 L 45.957031 26.992188 L 45.957031 33.925781 C 45.957031 36.09375 47.195312 37.074219 49.058594 37.074219 C 49.519531 37.074219 49.925781 37.007812 50.40625 36.820312 C 49.785156 36.378906 49.550781 35.652344 49.441406 35.101562 "/>
<path style=" stroke:none;fill-rule:nonzero;fill:rgb(94.117647%,43.529412%,21.568627%);fill-opacity:1;" d="M 61.007812 35.632812 C 61.007812 36.378906 60.4375 36.957031 59.632812 36.957031 C 58.835938 36.957031 58.257812 36.386719 58.257812 35.632812 C 58.257812 34.914062 58.828125 34.296875 59.632812 34.296875 C 60.4375 34.296875 61.007812 34.925781 61.007812 35.632812 "/>
</g>
</svg>
